<?xml version="1.0" encoding="UTF-8" standalone="no"?>
<svg width="128px" height="65px" viewBox="0 0 128 65" version="1.1" xmlns="http://www.w3.org/2000/svg" xmlns:xlink="http://www.w3.org/1999/xlink">
    <!-- Generator: Sketch 39.1 (31720) - http://www.bohemiancoding.com/sketch -->
    <title>logo</title>
    <desc>Created with Sketch.</desc>
    <defs></defs>
    <g id="Bootstrap-4-Grid-System" stroke="none" stroke-width="1" fill="none" fill-rule="evenodd">
        <g id="Extra-large-≥1200px" transform="translate(-123.000000, -57.000000)">
            <g id="logo" transform="translate(120.000000, 56.000000)">
                <path d="M20.978777,53.3106549 L25.2977223,29.4935291 L31.0932301,32.0991006 L34.9692067,39.7323243 L42.5735036,29.7871146 L48.6274098,32.5027807 L44.3084645,56.3199065 L38.2545582,53.5675422 L39.4727223,47.2554534 L32.9389332,55.8795282 L28.6938161,46.3379986 L26.9957692,56.026321 L20.978777,53.3106549 Z M46.1910817,53.1638621 L55.8160063,30.6973329 L61.5296557,33.4364908 L66.0877614,30.3008893 L67.0844411,55.6226409 L60.550652,54.5583934 L60.4399098,51.8060291 L53.2047536,53.0170694 L51.4697926,56.9437758 L46.1910817,53.1638621 Z M56.9330739,44.3562963 L60.1445973,43.8792199 L59.8861989,37.6405274 L56.9330739,44.3562963 Z M68.7455739,42.8516705 C69.2131543,40.2827843 69.9391236,36.4172802 70.9235036,31.2550422 C75.2916895,30.2764189 79.7951601,29.7871146 84.4340504,29.7871146 C86.4766388,29.7871146 88.0147093,29.9094407 89.0483082,30.1540965 L88.0147145,39.1451532 C86.6365826,39.2430156 84.5571112,39.3775743 81.7762379,39.5488333 L78.6754567,56.2465102 L72.6215504,53.4941458 L75.0209645,40.5396845 C72.3139197,41.2247208 70.2221438,41.9953751 68.7455739,42.8516705 L68.7455739,42.8516705 Z M88.1247845,43.2776385 C88.8869987,38.2349475 90.2049351,36.4295007 92.9611989,33.713821 C95.7174627,30.9981413 98.7919147,29.3265551 102.1528,29.6403218 C107.672397,30.5317691 109.989659,37.7544949 110.38339,40.1283205 C110.777121,42.5021462 109.70788,44.172801 109.387957,45.053562 L101.709832,45.053562 C101.832879,44.5887159 101.894402,44.1728072 101.894402,43.8058235 C101.894402,42.7293378 100.860519,36.5001763 95.8239708,40.7502759 C93.921525,43.5072649 94.3002162,43.1031818 93.8356612,45.5797076 C93.8356612,49.4034853 98.9781846,49.3961893 100.270183,47.7692281 L105.770379,50.9619707 C102.546534,54.5339458 99.0766471,56.3199065 95.3606129,56.3199065 C93.1703676,56.3199065 92.3780724,56.0094463 89.8604176,54.2281097 C87.6201709,50.1901618 87.3625703,48.3203295 88.1247845,43.2776385 Z M110.310808,53.3473531 L114.629754,29.5302273 L120.68366,32.2825916 L119.096355,40.9800628 C120.400659,40.7598725 123.577818,40.2360686 125.226654,40.0648095 L127.216105,29.8773356 L132.939129,32.5394789 L128.583269,56.3199065 L122.745406,53.3473531 L123.900088,47.5360741 C122.152814,47.8785922 119.266573,48.4650204 117.986879,48.9054009 L116.3278,56.0630192 L110.310808,53.3473531 Z" id="match" fill="#8FBADF" transform="translate(76.958953, 43.218652) rotate(-11.000000) translate(-76.958953, -43.218652) "></path>
                <path d="M2.53373476,34.1420327 L4.98060976,20.553217 C4.53060751,20.7489416 3.88373898,21.0704845 3.03998476,21.5178551 L4.30560976,14.8912104 C4.81186229,12.1231044 5.23373307,9.91424494 5.57123476,8.26456564 C10.5634472,7.14613899 15.6962084,6.58693406 20.9696723,6.58693406 C23.3040589,6.58693406 25.0759162,6.72673529 26.2852973,7.00634195 L25.1040473,17.2818354 C21.9821567,17.4495994 19.6126491,17.5963907 17.9954535,17.7222137 C16.3782579,17.8480367 14.697806,18.0647286 12.9540473,18.3722959 L12.4056098,21.5178551 L19.5774848,20.5112762 L20.8009223,27.8509143 L10.9712348,29.2769012 L9.49467226,37.287592 C8.31341636,36.7843 7.14624053,36.2670354 5.99310976,35.7357827 L2.53373476,34.1420327 Z M25.2306098,34.896967 L30.3352973,6.92246038 L37.2540473,10.0260788 L34.6384223,24.2020656 L39.8696723,21.9792038 L42.7384223,6.25140774 L50.8806098,9.85831564 L45.9024848,37.077888 L37.8024848,33.4709801 L30.2931098,37.2037104 L25.2306098,34.896967 Z M50.5431098,33.9323288 L55.4368598,6.71275643 L67.2915473,18.4142367 L69.3587348,6.67081564 L76.2774848,9.77443406 L71.6195683,34.6539114 L69.3587348,35.1245951 L59.1493598,27.0120985 L57.4196723,37.0359472 L50.5431098,33.9323288 Z" id="fun" fill="#FFFFFF" transform="translate(39.405610, 21.769500) rotate(-10.000000) translate(-39.405610, -21.769500) "></path>
            </g>
        </g>
    </g>
</svg>